HIERARCHY
ROOT Root
{
  OFFSET 0.0 0.0 0.0
  CHANNELS 6 Xposition Yposition Zposition Zrotation Yrotation Xrotation
  JOINT Hips
  {
    OFFSET 0.0 100.0 0.0
    CHANNELS 6 Xposition Yposition Zposition Zrotation Yrotation Xrotation
    JOINT Spine1
    {
      OFFSET 5.003913 -0.037094 -0.013727
      CHANNELS 3 Zrotation Yrotation Xrotation
      JOINT Spine2
      {
        OFFSET 7.125363 -1e-06 0.0
        CHANNELS 3 Zrotation Yrotation Xrotation
        JOINT Chest
        {
          OFFSET 7.594027 1e-06 0.0
          CHANNELS 3 Zrotation Yrotation Xrotation
          JOINT Neck1
          {
            OFFSET 26.313086 -0.460272 -0.181672
            CHANNELS 3 Zrotation Yrotation Xrotation
            JOINT Neck2
            {
              OFFSET 8.045911 0.0 0.0
              CHANNELS 3 Zrotation Yrotation Xrotation
              JOINT Head
              {
                OFFSET 6.432774 0.0 0.0
                CHANNELS 3 Zrotation Yrotation Xrotation
                JOINT HeadEnd
                {
                  OFFSET 16.169773 0.06451 0.00362
                  CHANNELS 3 Zrotation Yrotation Xrotation
                }
                JOINT Jaw
                {
                  OFFSET 0.108741 3.12938 0.002639
                  CHANNELS 3 Zrotation Yrotation Xrotation
                }
                JOINT LeftEye
                {
                  OFFSET 4.45173 8.166359 3.206392
                  CHANNELS 3 Zrotation Yrotation Xrotation
                }
                JOINT RightEye
                {
                  OFFSET 4.436895 8.135758 -3.222429
                  CHANNELS 3 Zrotation Yrotation Xrotation
                }
              }
            }
          }
          JOINT LeftShoulder
          {
            OFFSET 23.218927 5.195579 1.621656
            CHANNELS 3 Zrotation Yrotation Xrotation
            JOINT LeftArm
            {
              OFFSET 15.902118 2e-06 -2e-06
              CHANNELS 3 Zrotation Yrotation Xrotation
              JOINT LeftForeArm
              {
                OFFSET 28.739307 0.0 -1e-06
                CHANNELS 3 Zrotation Yrotation Xrotation
                JOINT LeftHand
                {
                  OFFSET 27.093981 -4e-06 0.0
                  CHANNELS 3 Zrotation Yrotation Xrotation
                  JOINT LeftHandThumb1
                  {
                    OFFSET 2.276781 3.380274 0.83384
                    CHANNELS 3 Zrotation Yrotation Xrotation
                    JOINT LeftHandThumb2
                    {
                      OFFSET 4.705309 -1e-06 -1e-06
                      CHANNELS 3 Zrotation Yrotation Xrotation
                      JOINT LeftHandThumb3
                      {
                        OFFSET 2.798515 0.0 3e-06
                        CHANNELS 3 Zrotation Yrotation Xrotation
                        JOINT LeftHandThumbEnd
                        {
                          OFFSET 3.180793 4e-06 -4e-06
                          CHANNELS 3 Zrotation Yrotation Xrotation
                        }
                      }
                    }
                  }
                  JOINT LeftHandIndex1
                  {
                    OFFSET 3.247786 2.352677 0.137192
                    CHANNELS 3 Zrotation Yrotation Xrotation
                    JOINT LeftHandIndex2
                    {
                      OFFSET 6.367095 1e-06 0.0
                      CHANNELS 3 Zrotation Yrotation Xrotation
                      JOINT LeftHandIndex3
                      {
                        OFFSET 3.662364 0.0 0.0
                        CHANNELS 3 Zrotation Yrotation Xrotation
                        JOINT LeftHandIndex4
                        {
                          OFFSET 2.329242 4e-06 -4e-06
                          CHANNELS 3 Zrotation Yrotation Xrotation
                          JOINT LeftHandIndexEnd
                          {
                            OFFSET 2.767823 1e-06 0.0
                            CHANNELS 3 Zrotation Yrotation Xrotation
                          }
                        }
                      }
                    }
                  }
                  JOINT LeftHandMiddle1
                  {
                    OFFSET 3.163612 0.945023 -0.406112
                    CHANNELS 3 Zrotation Yrotation Xrotation
                    JOINT LeftHandMiddle2
                    {
                      OFFSET 6.276789 3e-06 0.0
                      CHANNELS 3 Zrotation Yrotation Xrotation
                      JOINT LeftHandMiddle3
                      {
                        OFFSET 4.35652 -1e-06 4e-06
                        CHANNELS 3 Zrotation Yrotation Xrotation
                        JOINT LeftHandMiddle4
                        {
                          OFFSET 2.996877 0.0 8e-06
                          CHANNELS 3 Zrotation Yrotation Xrotation
                          JOINT LeftHandMiddleEnd
                          {
                            OFFSET 2.323256 3e-06 -4e-06
                            CHANNELS 3 Zrotation Yrotation Xrotation
                          }
                        }
                      }
                    }
                  }
                  JOINT LeftHandRing1
                  {
                    OFFSET 2.882606 -0.309162 0.107445
                    CHANNELS 3 Zrotation Yrotation Xrotation
                    JOINT LeftHandRing2
                    {
                      OFFSET 6.033198 0.0 4e-06
                      CHANNELS 3 Zrotation Yrotation Xrotation
                      JOINT LeftHandRing3
                      {
                        OFFSET 4.350578 3e-06 0.0
                        CHANNELS 3 Zrotation Yrotation Xrotation
                        JOINT LeftHandRing4
                        {
                          OFFSET 2.651321 2e-06 -7e-06
                          CHANNELS 3 Zrotation Yrotation Xrotation
                          JOINT LeftHandRingEnd
                          {
                            OFFSET 1.937663 1e-06 -4e-06
                            CHANNELS 3 Zrotation Yrotation Xrotation
                          }
                        }
                      }
                    }
                  }
                  JOINT LeftHandPinky1
                  {
                    OFFSET 2.865315 -1.525436 0.575687
                    CHANNELS 3 Zrotation Yrotation Xrotation
                    JOINT LeftHandPinky2
                    {
                      OFFSET 5.54936 1e-06 -8e-06
                      CHANNELS 3 Zrotation Yrotation Xrotation
                      JOINT LeftHandPinky3
                      {
                        OFFSET 3.070974 0.0 -4e-06
                        CHANNELS 3 Zrotation Yrotation Xrotation
                        JOINT LeftHandPinky4
                        {
                          OFFSET 1.549672 1e-06 0.0
                          CHANNELS 3 Zrotation Yrotation Xrotation
                          JOINT LeftHandPinkyEnd
                          {
                            OFFSET 1.952123 0.0 0.0
                            CHANNELS 3 Zrotation Yrotation Xrotation
                          }
                        }
                      }
                    }
                  }
                }
              }
            }
          }
          JOINT RightShoulder
          {
            OFFSET 23.161716 5.296122 -1.380114
            CHANNELS 3 Zrotation Yrotation Xrotation
            JOINT RightArm
            {
              OFFSET -16.027195 -2e-06 1.1e-05
              CHANNELS 3 Zrotation Yrotation Xrotation
              JOINT RightForeArm
              {
                OFFSET -28.736639 4e-06 2e-06
                CHANNELS 3 Zrotation Yrotation Xrotation
                JOINT RightHand
                {
                  OFFSET -27.133619 6e-06 0.0
                  CHANNELS 3 Zrotation Yrotation Xrotation
                  JOINT RightHandThumb1
                  {
                    OFFSET -2.274328 -3.351035 -0.83067
                    CHANNELS 3 Zrotation Yrotation Xrotation
                    JOINT RightHandThumb2
                    {
                      OFFSET -4.703594 -3e-06 2e-06
                      CHANNELS 3 Zrotation Yrotation Xrotation
                      JOINT RightHandThumb3
                      {
                        OFFSET -2.794935 -4e-06 -3e-06
                        CHANNELS 3 Zrotation Yrotation Xrotation
                        JOINT RightHandThumbEnd
                        {
                          OFFSET -3.183852 4e-06 1e-06
                          CHANNELS 3 Zrotation Yrotation Xrotation
                        }
                      }
                    }
                  }
                  JOINT RightHandIndex1
                  {
                    OFFSET -3.253496 -2.33755 -0.127667
                    CHANNELS 3 Zrotation Yrotation Xrotation
                    JOINT RightHandIndex2
                    {
                      OFFSET -6.344434 0.0 0.0
                      CHANNELS 3 Zrotation Yrotation Xrotation
                      JOINT RightHandIndex3
                      {
                        OFFSET -3.654871 0.0 -8e-06
                        CHANNELS 3 Zrotation Yrotation Xrotation
                        JOINT RightHandIndex4
                        {
                          OFFSET -2.327586 -1e-06 0.0
                          CHANNELS 3 Zrotation Yrotation Xrotation
                          JOINT RightHandIndexEnd
                          {
                            OFFSET -2.770001 3e-06 8e-06
                            CHANNELS 3 Zrotation Yrotation Xrotation
                          }
                        }
                      }
                    }
                  }
                  JOINT RightHandMiddle1
                  {
                    OFFSET -3.168223 -0.944764 0.411762
                    CHANNELS 3 Zrotation Yrotation Xrotation
                    JOINT RightHandMiddle2
                    {
                      OFFSET -6.266691 -1e-06 -4e-06
                      CHANNELS 3 Zrotation Yrotation Xrotation
                      JOINT RightHandMiddle3
                      {
                        OFFSET -4.348901 0.0 0.0
                        CHANNELS 3 Zrotation Yrotation Xrotation
                        JOINT RightHandMiddle4
                        {
                          OFFSET -3.00024 2e-06 -4e-06
                          CHANNELS 3 Zrotation Yrotation Xrotation
                          JOINT RightHandMiddleEnd
                          {
                            OFFSET -2.321477 -4e-06 -4e-06
                            CHANNELS 3 Zrotation Yrotation Xrotation
                          }
                        }
                      }
                    }
                  }
                  JOINT RightHandRing1
                  {
                    OFFSET -2.885654 0.293261 -0.119232
                    CHANNELS 3 Zrotation Yrotation Xrotation
                    JOINT RightHandRing2
                    {
                      OFFSET -6.032835 -1e-06 -4e-06
                      CHANNELS 3 Zrotation Yrotation Xrotation
                      JOINT RightHandRing3
                      {
                        OFFSET -4.33881 0.0 -4e-06
                        CHANNELS 3 Zrotation Yrotation Xrotation
                        JOINT RightHandRing4
                        {
                          OFFSET -2.654903 -4e-06 -4e-06
                          CHANNELS 3 Zrotation Yrotation Xrotation
                          JOINT RightHandRingEnd
                          {
                            OFFSET -1.935122 0.0 4e-06
                            CHANNELS 3 Zrotation Yrotation Xrotation
                          }
                        }
                      }
                    }
                  }
                  JOINT RightHandPinky1
                  {
                    OFFSET -2.866241 1.503904 -0.60527
                    CHANNELS 3 Zrotation Yrotation Xrotation
                    JOINT RightHandPinky2
                    {
                      OFFSET -5.553177 -2e-06 0.0
                      CHANNELS 3 Zrotation Yrotation Xrotation
                      JOINT RightHandPinky3
                      {
                        OFFSET -3.062664 -1e-06 -4e-06
                        CHANNELS 3 Zrotation Yrotation Xrotation
                        JOINT RightHandPinky4
                        {
                          OFFSET -1.546529 2e-06 4e-06
                          CHANNELS 3 Zrotation Yrotation Xrotation
                          JOINT RightHandPinkyEnd
                          {
                            OFFSET -1.952341 0.0 -4e-06
                            CHANNELS 3 Zrotation Yrotation Xrotation
                          }
                        }
                      }
                    }
                  }
                }
              }
            }
          }
        }
      }
    }
    JOINT LeftLeg
    {
      OFFSET -8.443107 2.567604 10.043214
      CHANNELS 3 Zrotation Yrotation Xrotation
      JOINT LeftShin
      {
        OFFSET 43.229198 1e-06 -1e-06
        CHANNELS 3 Zrotation Yrotation Xrotation
        JOINT LeftFoot
        {
          OFFSET 42.298611 1e-06 1e-06
          CHANNELS 3 Zrotation Yrotation Xrotation
          JOINT LeftToeBase
          {
            OFFSET 14.165858 1e-06 0.0
            CHANNELS 3 Zrotation Yrotation Xrotation
            JOINT LeftToeEnd
            {
              OFFSET 6.7141 -0.234461 0.0
              CHANNELS 3 Zrotation Yrotation Xrotation
            }
          }
        }
      }
    }
    JOINT RightLeg
    {
      OFFSET -8.303923 2.592729 -10.047278
      CHANNELS 3 Zrotation Yrotation Xrotation
      JOINT RightShin
      {
        OFFSET -43.369682 0.0 1e-06
        CHANNELS 3 Zrotation Yrotation Xrotation
        JOINT RightFoot
        {
          OFFSET -42.260784 4e-06 2e-06
          CHANNELS 3 Zrotation Yrotation Xrotation
          JOINT RightToeBase
          {
            OFFSET -14.222245 -2e-06 -1e-06
            CHANNELS 3 Zrotation Yrotation Xrotation
            JOINT RightToeEnd
            {
              OFFSET -6.660062 0.232574 -2e-06
              CHANNELS 3 Zrotation Yrotation Xrotation
            }
          }
        }
      }
    }
  }
}
MOTION
Frames: 4
Frame Time: 0.03333333333333333
0.0 0.0 0.0 0.0 -0.0 0.0 -9.731757 98.810356 204.657074 95.50206 5.37226 85.606476 -0.487854 -2.306846 -0.071601 -11.068064 -0.50347 0.781463 17.856499 -1.527322 -1.842328 21.328274 -6.705082 3.150932 -2.599017 -0.840495 1.008431 -28.096769 0.82377 0.714653 6e-06 0.0 0.0 -0.015741 0.046375 0.068548 -0.044529 0.067829 0.061079 -0.046352 0.010381 0.083358 -110.214355 -65.706421 128.19162 21.484495 -10.73047 9.633068 51.819366 0.148148 -0.536436 4.167469 1.663853 -18.535538 17.636627 -26.322733 52.411201 -19.466665 -14.395602 29.410395 -2e-06 -8.774824 -2e-06 14.526453 -18.108002 6.81941 -0.609778 -1.795654 -3.889328 -4.807091 -11.046814 -2.937851 0.0 -20.976025 -0.0 -5.01997 -25.033562 -4.031882 8e-06 -1e-06 1e-06 -10.634535 -5.686972 -3.565587 10.573275 -17.922958 -3.113904 1e-06 -13.821214 -0.0 -0.501775 -31.181511 -4.02702 -11.272434 -59.59832 7.777682 -13.982718 -7.150201 -2.875041 13.772731 -8.401496 -3.218243 0.347733 -34.211559 0.771655 -0.963028 -17.733372 2.621017 -0.0 0.0 -0.0 -17.346426 -20.095224 -4.201781 21.757566 -1.638375 3.866426 -1e-06 -6.338825 -0.0 -1.697588 -22.591753 -6.194006 1e-06 -4e-06 -2e-06 78.202148 -76.980919 119.926414 21.598305 -22.893751 17.702631 60.935432 -0.127137 0.223305 -0.389486 -3.252016 6.900827 22.182114 -20.375895 49.933319 -16.701817 -16.74353 28.476534 -3e-06 -12.690601 -2e-06 16.602991 -18.127012 2.575004 -0.105919 -1.513853 -4.27588 -5.039041 -5.612873 -2.953555 3e-06 -11.020526 -2e-06 -6.111298 -15.895334 -3.840471 -0.0 0.0 0.0 -10.28337 -5.680287 -4.341839 11.028294 -11.302404 -2.372633 -1.38427 -14.238583 -6.320124 -0.625441 -26.924194 -3.827601 -3.948758 -50.389156 -3.899551 -13.708524 -7.363474 -3.72094 18.141148 -14.052743 -3.242674 5e-06 -18.787271 -2e-06 -0.429711 -8.456045 2.555503 0.0 -0.0 -0.0 -15.923536 -20.094482 -5.473583 30.41921 -7.190826 1.735926 2e-06 -8.162927 -2e-06 -1.861901 -22.861473 -6.167942 0.0 -4e-06 -3e-06 179.798187 9.287594 -7.034561 13.889481 -0.110401 -0.114938 -78.697418 -7.374104 -2.360208 -7.996079 1.589636 1.987479 -0.999999 0.0 0.0 -7.120557 -16.16119 -1.003564 71.692757 -0.844986 0.658481 -53.37812 12.85743 -3.540804 -9.094106 0.740966 1.56523 -1.000001 -0.0 -0.0 
0.0 0.0 0.0 0.0 -0.0 0.0 -9.621631 98.911133 206.515152 94.694458 5.449963 85.644028 -0.16527 -2.150258 -0.307482 -10.926357 -0.526304 0.335195 17.704374 -0.953178 -2.176925 21.278496 -6.118781 3.063007 -2.614525 -0.810042 1.153089 -28.731853 0.728715 0.925974 7e-06 0.0 0.0 -0.020751 0.041227 0.027108 -0.025976 0.063215 0.018917 -0.02014 0.005421 0.04327 -109.408859 -66.582268 127.366623 21.888599 -10.61728 8.748897 51.920174 -0.214318 -0.871051 3.919703 1.908142 -18.124325 17.636623 -26.322737 52.411186 -19.46666 -14.3956 29.410385 -1e-06 -8.774823 -2e-06 14.577936 -18.112267 6.767548 -0.609778 -1.795656 -3.889328 -4.807087 -11.046811 -2.937849 0.0 -20.976019 0.0 -5.019974 -25.033558 -4.031879 8e-06 -1e-06 -2e-06 -10.634535 -5.686971 -3.565586 10.573272 -17.922949 -3.113902 1e-06 -13.821209 1e-06 -0.50178 -31.181498 -4.027014 -11.257765 -59.529068 7.831699 -13.982714 -7.150198 -2.875041 13.77273 -8.40149 -3.218242 0.347729 -34.211555 0.771658 -0.963031 -17.73337 2.621019 2e-06 -0.0 -1e-06 -17.346424 -20.095217 -4.201779 21.757563 -1.638373 3.866428 0.0 -6.338825 -1e-06 -1.697591 -22.591747 -6.194005 -1e-06 -4e-06 -1e-06 78.024956 -76.320618 119.834305 20.558218 -24.01684 18.240997 60.908642 0.056019 0.459741 -0.662033 -2.577857 6.367981 22.182121 -20.375891 49.933323 -16.701813 -16.743525 28.476532 -2e-06 -12.6906 -3e-06 16.582958 -18.206837 2.586705 -0.105918 -1.513854 -4.275883 -5.039039 -5.612872 -2.953557 4e-06 -11.020523 -3e-06 -6.111297 -15.895332 -3.840469 0.0 0.0 -1e-06 -10.283369 -5.680287 -4.341839 11.028293 -11.302404 -2.372632 -1.384269 -14.238582 -6.320123 -0.62544 -26.924191 -3.827601 -3.924543 -50.435844 -3.949471 -13.708524 -7.363475 -3.720942 18.141148 -14.052738 -3.24267 4e-06 -18.78727 -1e-06 -0.429713 -8.456043 2.555501 -1e-06 0.0 -1e-06 -15.923536 -20.094482 -5.47359 30.41921 -7.190824 1.735926 2e-06 -8.162926 -1e-06 -1.861903 -22.861467 -6.16794 -0.0 -4e-06 -0.0 -178.410004 8.6411 -6.661292 13.292817 -0.121026 -0.065957 -79.718163 -7.269497 -2.11247 -7.907588 1.56544 1.982037 -0.999999 0.0 -0.0 -11.391889 -15.553571 -1.568342 72.538315 -0.602864 0.575869 -60.660599 8.337093 -3.831515 -9.299548 0.74622 1.606209 -1.000002 -0.0 1e-06 
0.0 0.0 0.0 0.0 -0.0 0.0 -9.567412 99.02494 208.429092 93.811676 5.300687 85.709541 0.093238 -1.953549 -0.52907 -10.82058 -0.498948 -0.098965 17.542017 -0.377092 -2.572215 21.057278 -5.468995 2.881268 -2.630788 -0.746942 1.423242 -29.314407 0.567525 1.041435 6e-06 0.0 -0.0 -0.02416 0.039299 0.003317 -0.016701 0.063761 -0.005145 -0.007471 0.002236 0.019705 -108.840874 -67.486053 126.745689 21.974394 -10.454595 7.716237 52.238361 -0.532571 -1.116505 3.687628 1.901673 -17.844881 17.636637 -26.322739 52.411194 -19.466656 -14.395598 29.410389 -1e-06 -8.774822 -2e-06 14.606409 -18.078066 6.734684 -0.609775 -1.795653 -3.889328 -4.807091 -11.046809 -2.937851 2e-06 -20.976015 4e-06 -5.019971 -25.033552 -4.031878 8e-06 -0.0 -2e-06 -10.634532 -5.686969 -3.565591 10.57327 -17.922947 -3.113897 2e-06 -13.821208 3e-06 -0.501777 -31.181501 -4.027014 -11.165223 -59.360107 7.807577 -13.982714 -7.150201 -2.875046 13.772729 -8.40149 -3.218238 0.347733 -34.211544 0.771659 -0.963028 -17.733368 2.621021 -0.0 0.0 -0.0 -17.346416 -20.095215 -4.201779 21.757557 -1.638376 3.86643 2e-06 -6.338823 0.0 -1.697589 -22.591742 -6.194007 -1e-06 -5e-06 -0.0 77.474213 -75.490646 120.088104 19.390259 -25.127882 18.68976 60.717201 0.196188 0.696424 -0.697768 -1.901257 5.559936 22.182116 -20.375883 49.933311 -16.701809 -16.743528 28.476526 -2e-06 -12.690601 -3e-06 16.546604 -18.244625 2.598171 -0.105919 -1.513857 -4.275881 -5.039041 -5.612871 -2.953557 1e-06 -11.020519 -3e-06 -6.111297 -15.895328 -3.840472 -0.0 -0.0 -1e-06 -10.283371 -5.680288 -4.341839 11.028291 -11.302402 -2.372635 -1.38427 -14.238577 -6.32012 -0.62544 -26.924183 -3.827605 -3.941499 -50.340439 -3.986032 -13.708524 -7.363474 -3.720939 18.141146 -14.052736 -3.242676 3e-06 -18.787266 -1e-06 -0.429712 -8.456041 2.555503 -1e-06 0.0 0.0 -15.923532 -20.094482 -5.473585 30.41921 -7.190823 1.735926 2e-06 -8.162922 -4e-06 -1.861902 -22.861465 -6.167942 0.0 -3e-06 -1e-06 -176.801682 7.853086 -6.417714 12.30816 -0.12242 -0.022662 -80.479012 -7.030899 -1.905565 -7.790537 1.522905 1.977851 -0.999999 -0.0 0.0 -15.291557 -14.575573 -2.37868 70.068176 -0.384852 0.484159 -65.728531 4.863664 -4.106726 -9.639448 0.73308 1.615369 -1.000003 -0.0 -1e-06 
0.0 0.0 0.0 0.0 -0.0 0.0 -9.562815 99.128044 210.383484 92.988617 4.912934 85.76976 0.223034 -1.754643 -0.700716 -10.762267 -0.473725 -0.51176 17.420202 0.188474 -2.991427 20.693033 -4.884515 2.670933 -2.663048 -0.671223 1.682791 -29.785885 0.380939 1.125706 6e-06 0.0 0.0 -0.030677 0.039126 -0.016564 -0.013232 0.059309 -0.022667 -0.002538 0.007451 -0.002978 -108.56498 -68.336075 126.337547 21.812355 -10.247999 6.67994 52.731834 -0.784967 -1.323047 3.381376 1.713011 -17.409868 17.636629 -26.322721 52.411179 -19.466654 -14.395597 29.410385 -0.0 -8.774821 -2e-06 14.638422 -18.058313 6.734417 -0.609774 -1.795653 -3.88933 -4.807088 -11.046807 -2.93785 2e-06 -20.976009 2e-06 -5.019969 -25.033545 -4.031881 8e-06 -0.0 -2e-06 -10.634531 -5.68697 -3.565589 10.573269 -17.922945 -3.113898 3e-06 -13.821203 3e-06 -0.501775 -31.181488 -4.027015 -11.117546 -59.259815 7.786855 -13.982711 -7.150198 -2.875045 13.772727 -8.401489 -3.21824 0.347733 -34.211544 0.771658 -0.963029 -17.73337 2.621019 -0.0 1e-06 -1e-06 -17.346413 -20.095213 -4.201783 21.757555 -1.638375 3.86643 1e-06 -6.338821 -2e-06 -1.697589 -22.591738 -6.194007 -1e-06 -5e-06 0.0 76.432266 -74.571831 120.869446 18.058044 -26.188364 18.900915 60.335865 0.281722 0.934577 -0.612906 -1.311456 4.789377 22.182117 -20.375887 49.933311 -16.701809 -16.743528 28.476528 -2e-06 -12.690601 -3e-06 16.481487 -18.217983 2.602523 -0.10592 -1.513853 -4.275883 -5.039042 -5.612873 -2.953556 3e-06 -11.02052 -3e-06 -6.111297 -15.89533 -3.840472 0.0 0.0 -2e-06 -10.283369 -5.680287 -4.341839 11.028293 -11.302403 -2.372633 -1.384269 -14.238581 -6.32012 -0.625438 -26.924187 -3.827602 -4.015416 -50.145226 -3.9758 -13.708524 -7.363473 -3.720941 18.141148 -14.052739 -3.242674 6e-06 -18.787266 -1e-06 -0.429712 -8.456041 2.555504 -1e-06 -0.0 0.0 -15.923536 -20.094482 -5.473584 30.419207 -7.190824 1.735928 2e-06 -8.162925 -1e-06 -1.861902 -22.861464 -6.167943 2e-06 -4e-06 -2e-06 -175.062637 7.099805 -6.285645 10.76943 -0.101996 0.007267 -81.056908 -6.621442 -1.721083 -7.602036 1.476338 1.984209 -0.999998 -0.0 0.0 -18.580194 -13.391697 -3.405906 64.395561 -0.237314 0.375325 -69.179138 2.689235 -4.930188 -9.899709 0.715433 1.601138 -1.000007 1e-06 -1e-06 
